<svg width="14" height="15" viewBox="0 0 14 15" fill="none" xmlns="http://www.w3.org/2000/svg">
<g id="SVG">
<path id="Vector" d="M7.0082 8.30483L3.28945 12.0236C3.03242 12.2806 2.6168 12.2806 2.3625 12.0236L1.74453 11.4056C1.4875 11.1486 1.4875 10.733 1.74453 10.4787L4.38047 7.84272L1.74453 5.20679C1.4875 4.94976 1.4875 4.53413 1.74453 4.27983L2.35977 3.6564C2.6168 3.39937 3.03242 3.39937 3.28672 3.6564L7.00547 7.37515C7.26523 7.63218 7.26523 8.0478 7.0082 8.30483ZM12.2582 7.37515L8.53945 3.6564C8.28242 3.39937 7.8668 3.39937 7.6125 3.6564L6.99453 4.27437C6.7375 4.5314 6.7375 4.94702 6.99453 5.20132L9.63047 7.83726L6.99453 10.4732C6.7375 10.7302 6.7375 11.1458 6.99453 11.4001L7.6125 12.0181C7.86953 12.2751 8.28516 12.2751 8.53945 12.0181L12.2582 8.29936C12.5152 8.0478 12.5152 7.63218 12.2582 7.37515Z" fill="#EDBF01"/>
</g>
</svg>
