<svg width="51" height="51" viewBox="0 0 51 51" fill="none" xmlns="http://www.w3.org/2000/svg">
<g id="SVG">
<path id="Vector" d="M38.625 20.63H26.75V25.005C26.75 28.1066 24.2266 30.63 21.125 30.63C18.0234 30.63 15.5 28.1066 15.5 25.005V15.505L10.4297 18.5519C8.92189 19.4503 8.00001 21.0831 8.00001 22.8331V26.5285L1.75001 30.1378C0.554699 30.8253 0.140637 32.3566 0.835949 33.5519L7.08595 44.38C7.77345 45.5753 9.3047 45.9816 10.5 45.2941L18.5781 40.63H29.25C32.0078 40.63 34.25 38.3878 34.25 35.63H35.5C36.8828 35.63 38 34.5128 38 33.13V28.13H38.625C39.6641 28.13 40.5 27.2941 40.5 26.255V22.505C40.5 21.466 39.6641 20.63 38.625 20.63ZM50.1641 17.7081L43.9141 6.88002C43.2266 5.68471 41.6953 5.27846 40.5 5.96596L32.4219 10.63H24.4375C23.5 10.63 22.5859 10.8956 21.7891 11.3878L19.1719 13.0206C18.4375 13.4738 18 14.2785 18 15.1378V25.005C18 26.7316 19.3984 28.13 21.125 28.13C22.8516 28.13 24.25 26.7316 24.25 25.005V18.13H38.625C41.0391 18.13 43 20.091 43 22.505V24.7316L49.25 21.1222C50.4453 20.4269 50.8516 18.9035 50.1641 17.7081Z" fill="#6B59ED"/>
</g>
</svg>
