<svg width="19" height="19" viewBox="0 0 19 19" fill="none" xmlns="http://www.w3.org/2000/svg">
<g id="SVG">
<path id="Vector" d="M7.60999 7.61243C7.60999 6.99122 7.1062 6.48743 6.48499 6.48743H5.92249C4.67971 6.48743 3.67249 7.49465 3.67249 8.73743V10.4249C3.67249 11.6677 4.67971 12.6749 5.92249 12.6749H6.48499C7.1062 12.6749 7.60999 12.1711 7.60999 11.5499V7.61243ZM13.7975 12.6749C15.0403 12.6749 16.0475 11.6677 16.0475 10.4249V8.73743C16.0475 7.49465 15.0403 6.48743 13.7975 6.48743H13.235C12.6138 6.48743 12.11 6.99122 12.11 7.61243V11.5499C12.11 12.1711 12.6138 12.6749 13.235 12.6749H13.7975ZM9.85999 0.299927C4.83897 0.299927 1.021 4.47754 0.859985 9.29993V9.86243C0.859985 10.1732 1.1117 10.4249 1.42249 10.4249H1.98499C2.29577 10.4249 2.54749 10.1732 2.54749 9.86243V9.29993C2.54749 5.26786 5.82792 1.98743 9.85999 1.98743C13.8921 1.98743 17.1725 5.26786 17.1725 9.29993H17.1683C17.1711 9.38536 17.1725 15.126 17.1725 15.126C17.1725 15.9469 16.507 16.6124 15.6861 16.6124H12.11C12.11 15.6804 11.3545 14.9249 10.4225 14.9249H9.29749C8.36549 14.9249 7.60999 15.6804 7.60999 16.6124C7.60999 17.5444 8.36549 18.2999 9.29749 18.2999H15.6861C17.439 18.2999 18.86 16.8789 18.86 15.126V9.29993C18.699 4.47754 14.881 0.299927 9.85999 0.299927Z" fill="#06AD09"/>
</g>
</svg>
