<svg width="26" height="26" viewBox="0 0 26 26" fill="none" xmlns="http://www.w3.org/2000/svg">
<g id="SVG">
<path id="Vector" d="M22.375 2.31226H3.62012C2.76074 2.31226 2.0625 3.02026 2.0625 3.8894V22.6101C2.0625 23.4792 2.76074 24.1873 3.62012 24.1873H22.375C23.2344 24.1873 23.9375 23.4792 23.9375 22.6101V3.8894C23.9375 3.02026 23.2344 2.31226 22.375 2.31226ZM8.67383 21.0623H5.43164V10.6228H8.67871V21.0623H8.67383ZM7.05273 9.19702C6.0127 9.19702 5.17285 8.35229 5.17285 7.31714C5.17285 6.28198 6.0127 5.43726 7.05273 5.43726C8.08789 5.43726 8.93262 6.28198 8.93262 7.31714C8.93262 8.35718 8.09277 9.19702 7.05273 9.19702ZM20.8271 21.0623H17.585V15.9841C17.585 14.7732 17.5605 13.2156 15.9004 13.2156C14.2109 13.2156 13.9521 14.5339 13.9521 15.8962V21.0623H10.71V10.6228H13.8203V12.0486H13.8643C14.2988 11.2283 15.3584 10.364 16.9355 10.364C20.2168 10.364 20.8271 12.5271 20.8271 15.3396V21.0623Z" fill="white"/>
</g>
</svg>
