<svg width="19" height="20" viewBox="0 0 19 20" fill="none" xmlns="http://www.w3.org/2000/svg">
<g id="SVG">
<path id="Vector" d="M16.7832 8.24945H11.3208V2.78757C11.3208 2.11735 10.7772 1.57382 10.1069 1.57382H8.89306C8.22278 1.57382 7.6792 2.11735 7.6792 2.78757V8.24945H2.21679C1.5465 8.24945 1.00292 8.79298 1.00292 9.4632V10.6769C1.00292 11.3472 1.5465 11.8907 2.21679 11.8907H7.6792V17.3526C7.6792 18.0228 8.22278 18.5663 8.89306 18.5663H10.1069C10.7772 18.5663 11.3208 18.0228 11.3208 17.3526V11.8907H16.7832C17.4535 11.8907 17.9971 11.3472 17.9971 10.6769V9.4632C17.9971 8.79298 17.4535 8.24945 16.7832 8.24945Z" fill="#6B59ED" stroke="#6B59ED" stroke-width="0.0379334"/>
</g>
</svg>
