<svg width="29" height="30" viewBox="0 0 29 30" fill="none" xmlns="http://www.w3.org/2000/svg">
<g id="Icon" clip-path="url(#clip0_1_208)">
<path id="Vector" d="M6.74023 14.7419V17.0642H12.5742V29.6384H0V17.0642V14.7419C0 13.5525 0.0849609 12.448 0.254883 11.4285C0.424805 10.3901 0.679688 9.43188 1.01953 8.55396C1.35938 7.67603 1.78418 6.88778 2.29395 6.18921C2.80371 5.47176 3.389 4.83927 4.0498 4.29175C4.97494 3.51766 6.02751 2.94181 7.20752 2.56421C8.38753 2.18661 9.66667 1.9978 11.0449 1.9978V8.70972C10.2897 8.70972 9.38346 8.95988 8.32617 9.46021C7.26888 9.96053 6.74023 11.7211 6.74023 14.7419ZM27.499 8.70972V1.9978C26.1019 1.9978 24.818 2.18661 23.6475 2.56421C22.4769 2.94181 21.429 3.51766 20.5039 4.29175C19.8242 4.83927 19.2295 5.47176 18.7197 6.18921C18.21 6.88778 17.7852 7.67603 17.4453 8.55396C17.1055 9.43188 16.8506 10.3901 16.6807 11.4285C16.5107 12.448 16.4258 13.5525 16.4258 14.7419V29.6384H29V17.0642H23.166V14.7419C23.166 11.7211 23.6994 9.96053 24.7661 9.46021C25.8328 8.95988 26.7438 8.70972 27.499 8.70972Z" fill="#6B59ED"/>
</g>
<defs>
<clipPath id="clip0_1_208">
<rect width="29" height="29" fill="white" transform="matrix(1 0 0 -1 0 29.95)"/>
</clipPath>
</defs>
</svg>
