<svg width="20" height="22" viewBox="0 0 20 22" fill="none" xmlns="http://www.w3.org/2000/svg">
<g id="SVG">
<path id="Vector" d="M16.3013 4.81925C14.6185 3.13269 12.3775 2.20508 9.99598 2.20508C5.08026 2.20508 1.08021 6.20464 1.08021 11.1198C1.08021 12.6899 1.48986 14.2238 2.26898 15.5771L1.00391 20.1951L5.73087 18.9543C7.03209 19.665 8.49797 20.0385 9.99197 20.0385H9.99598C14.9077 20.0385 18.9961 16.0389 18.9961 11.1238C18.9961 8.74252 17.984 6.50581 16.3013 4.81925ZM9.99598 18.5366C8.66263 18.5366 7.3574 18.1792 6.22084 17.5046L5.95176 17.344L3.14851 18.0788L3.89551 15.3442L3.7188 15.0631C2.97582 13.8825 2.58625 12.5212 2.58625 11.1198C2.58625 7.03587 5.9116 3.71094 10 3.71094C11.9799 3.71094 13.8394 4.48194 15.237 5.88339C16.6346 7.28484 17.4941 9.14408 17.4901 11.1238C17.4901 15.2117 14.0804 18.5366 9.99598 18.5366ZM14.0603 12.987C13.8394 12.8746 12.743 12.3365 12.5382 12.2642C12.3334 12.1879 12.1848 12.1518 12.0362 12.3767C11.8876 12.6015 11.4619 13.0995 11.3293 13.2521C11.2008 13.4006 11.0683 13.4207 10.8474 13.3083C9.53815 12.6537 8.6787 12.1397 7.81523 10.658C7.58632 10.2644 8.04415 10.2925 8.46986 9.44123C8.54215 9.29266 8.50601 9.16416 8.44978 9.05172C8.39355 8.93928 7.94777 7.84302 7.76302 7.39728C7.5823 6.96359 7.39756 7.02383 7.26101 7.0158C7.1325 7.00777 6.9839 7.00777 6.8353 7.00777C6.68671 7.00777 6.44574 7.06398 6.24092 7.28484C6.0361 7.50972 5.46179 8.04781 5.46179 9.14408C5.46179 10.2403 6.261 11.3005 6.36943 11.449C6.48188 11.5976 7.93973 13.8464 10.1767 14.8141C11.5904 15.4245 12.1446 15.4767 12.8514 15.3723C13.2812 15.3081 14.1687 14.8342 14.3535 14.3122C14.5382 13.7902 14.5382 13.3444 14.482 13.2521C14.4298 13.1517 14.2812 13.0955 14.0603 12.987Z" fill="white" stroke="white" stroke-width="0.0401611"/>
</g>
</svg>
